<svg xmlns="http://www.w3.org/2000/svg" xmlns:xlink="http://www.w3.org/1999/xlink" fill="none" version="1.1" width="21.875" height="21.875" viewBox="0 0 21.875 21.875"><g><path d="M2.1875,6.5625L19.6875,6.5625L19.6875,20.7812C19.6875,21.3853,19.1978,21.875,18.5938,21.875L3.28125,21.875C2.67719,21.875,2.1875,21.3853,2.1875,20.7812L2.1875,6.5625ZM5.46875,3.28125L5.46875,1.09375C5.46875,0.489689,5.95844,0,6.5625,0L15.3125,0C15.9166,0,16.4062,0.489689,16.4062,1.09375L16.4062,3.28125L21.875,3.28125L21.875,5.46875L0,5.46875L0,3.28125L5.46875,3.28125ZM7.65625,2.1875L7.65625,3.28125L14.2188,3.28125L14.2188,2.1875L7.65625,2.1875ZM7.65625,10.9375L7.65625,17.5L9.84375,17.5L9.84375,10.9375L7.65625,10.9375ZM12.0312,10.9375L12.0312,17.5L14.2188,17.5L14.2188,10.9375L12.0312,10.9375Z" fill="#6D65FB" fill-opacity="0.800000011920929" style="mix-blend-mode:passthrough"/></g></svg>